<?xml version="1.0" standalone="no"?>
<!DOCTYPE svg PUBLIC "-//W3C//DTD SVG 20010904//EN" "http://www.w3.org/TR/2001/REC-SVG-20010904/DTD/svg10.dtd">
<svg version="1.0" xmlns="http://www.w3.org/2000/svg" viewBox="0 0 512.000000 512.000000" preserveAspectRatio="xMidYMid meet">

    <g transform="translate(0.000000,512.000000) scale(0.100000,-0.100000)" fill="#000000" stroke="none">
        <path d="M1126 4884 c-281 -61 -529 -271 -639 -541 -49 -120 -61 -189 -61
-338 -1 -150 13 -227 60 -333 l23 -53 -27 -10 c-15 -6 -107 -40 -206 -75 -98
-35 -191 -73 -206 -84 -16 -11 -38 -40 -49 -63 -21 -43 -21 -44 -21 -1510 0
-1576 -2 -1504 48 -1561 24 -26 91 -56 129 -56 28 0 231 70 918 317 116 42
217 76 225 75 8 0 285 -98 616 -216 331 -119 612 -216 625 -216 13 0 137 41
274 90 257 92 285 108 285 157 0 30 -42 73 -72 73 -13 0 -109 -31 -213 -69
l-190 -68 -3 1460 c-1 803 0 1462 2 1465 3 2 146 55 318 117 341 123 333 121
306 40 -11 -35 -22 -45 -87 -79 -121 -63 -186 -144 -198 -247 -8 -64 16 -127
66 -172 40 -36 70 -49 163 -67 67 -13 122 -47 126 -77 2 -12 -12 -57 -31 -101
-73 -164 -91 -236 -91 -362 -1 -109 1 -118 31 -182 73 -154 247 -257 436 -258
l47 0 0 -574 0 -573 -196 -72 c-108 -39 -205 -78 -215 -87 -42 -38 -7 -124 51
-124 12 0 111 32 219 71 108 39 203 71 211 71 8 1 261 -87 563 -195 301 -108
562 -197 580 -197 38 0 105 30 129 56 50 57 48 -15 48 1561 l0 1467 -21 44
c-12 25 -37 53 -58 67 -40 26 -1207 445 -1239 445 -11 0 -295 -99 -631 -219
l-610 -219 -216 77 c-168 59 -215 79 -211 91 3 8 19 54 36 102 35 101 33 131
-14 159 -56 34 -96 6 -121 -84 -22 -78 -71 -177 -121 -243 -22 -27 -131 -154
-242 -282 l-204 -231 -108 122 c-232 263 -292 333 -300 348 -8 13 1 12 49 -7
207 -84 426 -41 581 114 216 216 214 556 -7 762 -161 151 -369 189 -574 106
l-60 -24 27 36 c63 85 172 180 257 224 36 18 46 19 106 8 286 -50 505 -246
591 -528 35 -113 82 -141 141 -82 35 35 34 56 -13 186 -103 287 -357 506 -660
568 -96 20 -278 20 -372 0z m325 -524 c63 -24 139 -80 172 -127 55 -80 71
-132 72 -228 0 -80 -4 -97 -31 -155 -140 -297 -554 -298 -692 -2 -24 50 -27
70 -27 157 0 93 2 105 33 167 87 177 291 258 473 188z m2279 -1450 c0 -728 -2
-811 -16 -817 -24 -9 -151 15 -195 37 -56 29 -107 77 -132 124 -16 31 -22 59
-22 116 0 89 12 134 77 297 54 137 61 198 29 261 -42 82 -103 114 -293 156
-38 9 -52 38 -38 80 14 43 52 78 120 110 111 51 159 126 169 261 l6 80 140 51
c77 29 143 52 148 53 4 0 7 -364 7 -809z m790 580 c234 -84 431 -157 438 -162
9 -8 12 -312 12 -1460 0 -1240 -2 -1449 -14 -1454 -17 -7 -151 40 -150 52 0 5
12 35 27 67 106 227 14 462 -246 631 -98 65 -130 101 -147 167 -24 95 26 238
120 344 63 72 90 129 97 205 12 127 -72 286 -181 342 -44 22 -150 26 -232 8
-38 -9 -241 -69 -351 -105 -10 -4 -13 160 -13 795 l0 799 108 -38 c59 -21 298
-107 532 -191z m-3637 -349 c179 -205 309 -345 327 -353 l30 -13 0 -991 c0
-935 -1 -992 -17 -999 -10 -4 -249 -90 -532 -191 -398 -143 -517 -182 -527
-173 -20 16 -21 2893 -1 2906 14 9 397 151 412 152 6 1 144 -152 308 -338z
m1387 265 l205 -74 3 -1466 2 -1465 -112 40 c-102 36 -883 317 -950 341 l-28
10 0 989 0 988 28 15 c15 8 48 36 73 63 49 50 459 518 519 590 19 24 40 43 45
43 6 -1 102 -34 215 -74z m2145 -1322 c23 -9 71 -82 86 -132 18 -60 0 -110
-68 -190 -108 -127 -168 -307 -146 -437 21 -121 72 -190 209 -281 209 -139
275 -296 195 -459 -18 -36 -38 -65 -45 -65 -7 0 -181 60 -387 134 l-374 134
-2 589 -3 588 133 39 c72 22 166 49 207 62 73 22 162 30 195 18z" />
        <path d="M428 2651 c-27 -22 -64 -42 -85 -46 -78 -14 -108 -81 -58 -130 38
-39 133 -28 203 24 26 18 26 18 62 -5 82 -54 212 -54 291 0 l34 23 51 -29 c72
-40 140 -47 177 -18 20 16 27 30 27 56 0 44 -26 70 -79 79 -28 5 -58 20 -87
46 -38 32 -53 39 -89 39 -34 0 -49 -6 -76 -31 -73 -68 -128 -69 -200 -4 -56
50 -107 50 -171 -4z" />
        <path d="M428 2261 c-27 -22 -64 -42 -85 -46 -78 -14 -108 -81 -58 -130 38
-39 133 -28 203 24 26 18 26 18 62 -5 81 -54 212 -54 290 -1 l33 23 53 -28
c73 -40 140 -47 177 -18 20 16 27 30 27 56 0 44 -26 69 -78 78 -27 4 -56 19
-87 46 -39 33 -53 40 -89 40 -37 0 -50 -6 -86 -39 -69 -63 -118 -62 -192 4
-55 50 -106 49 -170 -4z" />
        <path d="M1705 2181 c-16 -10 -38 -28 -49 -39 -10 -12 -35 -24 -55 -28 -62
-10 -71 -15 -86 -44 -21 -40 -19 -57 10 -85 18 -19 34 -25 67 -25 50 1 111 21
139 46 18 17 22 16 80 -14 50 -26 73 -32 123 -32 67 1 126 18 157 46 18 17 22
16 80 -14 111 -57 199 -38 199 42 0 41 -37 76 -79 76 -28 0 -57 17 -96 55 -48
49 -103 45 -165 -11 -49 -45 -104 -55 -149 -28 -17 10 -31 22 -31 26 0 14 -64
48 -90 48 -14 0 -38 -8 -55 -19z" />
        <path d="M1705 1791 c-16 -10 -38 -28 -49 -39 -10 -12 -35 -24 -55 -28 -62
-10 -71 -15 -87 -46 -50 -96 81 -144 201 -74 l43 26 59 -31 c53 -29 64 -31
134 -27 60 4 86 10 122 31 l45 27 57 -30 c105 -55 195 -35 195 44 0 41 -37 76
-79 76 -28 0 -57 17 -96 55 -48 49 -103 45 -165 -11 -49 -45 -104 -55 -149
-28 -17 10 -31 22 -31 26 0 14 -64 48 -90 48 -14 0 -38 -8 -55 -19z" />
        <path d="M2916 1661 c-31 -27 -57 -40 -89 -45 -53 -8 -80 -34 -80 -78 0 -36
41 -78 77 -78 37 0 121 29 149 51 l27 20 37 -25 c82 -56 206 -56 288 0 l36 24
36 -25 c51 -34 133 -52 171 -36 28 12 52 46 52 75 0 27 -41 65 -78 72 -47 8
-81 26 -111 59 -18 19 -33 25 -66 25 -37 0 -51 -7 -90 -40 -37 -32 -54 -40
-86 -40 -45 0 -83 18 -118 55 -18 19 -33 25 -66 25 -36 0 -51 -7 -89 -39z" />
        <path d="M2916 1271 c-31 -27 -57 -40 -89 -45 -53 -8 -80 -34 -80 -78 0 -36
41 -78 77 -78 37 0 121 29 149 51 l27 20 37 -25 c82 -56 206 -56 288 0 l36 24
36 -25 c51 -34 133 -52 171 -36 28 12 52 46 52 75 0 31 -41 65 -85 71 -32 5
-56 18 -86 46 -35 33 -49 39 -85 39 -36 0 -51 -7 -89 -40 -40 -35 -53 -40 -94
-40 -43 0 -54 5 -92 40 -37 33 -51 40 -86 40 -34 0 -50 -7 -87 -39z" />
    </g>
</svg>